<svg height="512pt" viewBox="-15 0 512 512" width="512pt" xmlns="http://www.w3.org/2000/svg"><path d="m360.828125 150.890625c.238281-16.292969.292969-36.988281.347656-68.328125l61.621094-61.332031-21.164063-21.230469-40.417968 40.195312.003906-8.140624c-11.898438-4.164063-24.027344-9.230469-44.964844-9.230469-38.152344 0-71.613281 20.453125-90.003906 50.96875-4.9375-8.242188-11.015625-15.832031-18.109375-22.503907-19.539063-18.355468-45.066406-28.464843-71.886719-28.464843-64.140625 0-104.78125 51.863281-104.78125 116.765625 0 33.683594 11.320313 63.320312 35.628906 93.273437 13.566407 16.714844 30.796876 33.132813 50.585938 50.453125l-33.96875 33.96875-36.558594-36.554687-47.160156 141.488281 141.484375-47.164062-36.554687-36.554688 35.617187-35.617188c4.652344 3.921876 9.394531 7.902344 14.238281 11.964844 31.789063 26.648438 32.507813 27.40625 73.722656 63.109375 64.625-56.015625 60.292969-52.210937 72.238282-63.144531 5.628906-66.6875 25.726562-116.054688 60.082031-163.921875zm-313.394531 223.890625 12.839844-38.511719 25.675781 25.675781zm224.46875-74.289062c-5.988282 5.34375-15.753906 13.804687-43.398438 37.769531-20.859375-18.070313-25.070312-21.78125-54.441406-46.402344-70.210938-58.867187-112.589844-94.398437-112.589844-152.269531 0-43.1875 23.125-86.765625 74.78125-86.765625 19.15625 0 37.390625 7.21875 51.34375 20.328125 15.253906 14.335937 23.65625 33.75 23.65625 54.671875h30c0-41.355469 33.644532-75 75-75 5.179688 0 10.179688.453125 14.953125 1.355469-.003906 4.84375-.011719 10.226562-.015625 15.894531l-55.554687 55.292969 21.160156 21.265624 34.304687-34.144531c-.035156 11.476563-.085937 21.710938-.152343 28.632813-32.867188 47.1875-53.199219 102.070312-59.046875 159.371094zm0 0"/><path d="m421.21875 160.683594v-69.683594h-30v69.683594c-47.921875 59.890625-69.152344 137.335937-58.285156 213.414062 11.667968 81.648438 13.285156 88.375 13.285156 110.632813v27.269531h120v-27.273438c0-22.25 1.574219-28.691406 13.28125-110.628906 10.867188-76.078125-10.363281-153.523437-58.28125-213.414062zm28.582031 209.171875c-11.667969 81.648437-13.339843 88.90625-13.570312 112.144531h-60.027344c-.230469-23.277344-1.921875-30.625-13.566406-112.144531-9.039063-63.257813 6.785156-127.585938 43.582031-179.300781 36.796875 51.714843 52.617188 116.042968 43.582031 179.300781zm0 0"/><path d="m391.21875 271h30v90h-30zm0 0"/><path d="m391.21875 391h30v30h-30zm0 0"/></svg>